# xmcd
#
# Track frame offsets:
#       150
#       4533
#       23612
#       31942
#       50050
#       54193
#       76888
#       80512
#       97024
#       109622
#       131495
#       135232
#       157876
#       161287
#
# Disc length: 2416 seconds
#
# Revision: 0
# Processed by: cddbd v1.4PL0 Copyright (c) Steve Scherf et al.
# Submitted via: WhereIsIt 3.26
#
DISCID=93096e0e
DTITLE=Larry Schuba and Western Union - Country im Frack [CD 1)
DYEAR=1900
DGENRE=
TTITLE0=Ansage zu: Wieder unterwegs
TTITLE1=Wieder unterwegs
TTITLE2=Ansage zu: Asphaltdesperados
TTITLE3=Asphaltdesperados
TTITLE4=Ansage zu: Eig'ne Wege geh'n
TTITLE5=Eig'ne Wege geh'n
TTITLE6=Ansage zu: Einfach mal einfach nichts tun
TTITLE7=Einfach mal einfach nichts tun
TTITLE8=Ansage zu: Traktormann
TTITLE9=Traktormann
TTITLE10=Ansage zu: Bunte Tränen
TTITLE11=Bunte Tränen
TTITLE12=Ansage zu: Berlin
TTITLE13=Berlin
EXTD=
EXTT0=
EXTT1=
EXTT2=
EXTT3=
EXTT4=
EXTT5=
EXTT6=
EXTT7=
EXTT8=
EXTT9=
EXTT10=
EXTT11=
EXTT12=
EXTT13=
PLAYORDER=
